<?xml version="1.0" standalone="no"?>
<!DOCTYPE svg PUBLIC "-//W3C//DTD SVG 20010904//EN"
 "http://www.w3.org/TR/2001/REC-SVG-20010904/DTD/svg10.dtd">
<svg version="1.0" xmlns="http://www.w3.org/2000/svg"
 width="337.000000pt" height="351.000000pt" viewBox="0 0 337.000000 351.000000"
 preserveAspectRatio="xMidYMid meet">
<metadata>
Created by potrace 1.11, written by Peter Selinger 2001-2013
</metadata>
<g transform="translate(0.000000,351.000000) scale(0.100000,-0.100000)"
fill="#000000" stroke="none">
<path d="M1395 3204 c-115 -21 -266 -69 -371 -119 -275 -132 -523 -375 -661
-648 -48 -95 -108 -283 -129 -397 -22 -128 -22 -354 1 -485 101 -585 556
-1044 1150 -1161 124 -25 386 -25 510 0 598 118 1045 567 1152 1159 23 126 22
372 -1 492 -57 303 -184 543 -401 761 -211 212 -470 348 -760 398 -113 20
-378 20 -490 0z m503 -39 c354 -69 683 -282 871 -564 106 -160 123 -207 125
-346 l1 -40 -259 -3 c-143 -1 -263 1 -268 6 -8 8 41 188 83 300 10 29 19 65
19 80 l0 27 -19 -30 c-21 -32 -251 -623 -251 -643 0 -9 38 -12 130 -12 l130 0
0 -49 c0 -27 -3 -62 -6 -80 l-6 -31 -161 -2 -161 -3 -23 -60 c-37 -96 -49 -90
163 -89 102 0 187 -2 189 -5 1 -3 0 -39 -2 -78 l-6 -73 -220 -2 -221 -3 -141
-363 -140 -363 -90 3 -90 3 -131 340 c-73 187 -136 349 -140 360 -9 19 -19 20
-232 20 l-223 0 3 80 3 80 188 0 c103 0 187 3 187 6 0 3 -13 37 -28 75 l-29
69 -161 0 -162 0 0 83 0 82 131 0 c101 0 130 3 126 13 -3 6 -60 154 -127 327
-67 173 -126 322 -132 330 -12 19 -16 34 56 -190 31 -97 56 -184 56 -193 0
-16 -20 -17 -267 -15 l-268 3 1 35 c1 55 13 130 25 151 5 11 7 24 4 29 -3 6
-2 10 4 10 6 0 8 6 5 13 -6 18 98 181 169 264 211 245 531 416 863 462 95 13
332 6 432 -14z"/>
<path d="M918 2633 c61 -3 94 -8 97 -16 7 -22 343 -911 359 -952 l16 -40 248
0 c153 0 249 4 254 10 3 6 43 107 88 225 192 506 250 658 270 712 l21 57 97 4
97 3 -97 2 -97 2 -16 -29 c-8 -16 -24 -56 -36 -88 -33 -88 -130 -297 -143
-305 -6 -4 -200 -8 -431 -8 -231 0 -425 4 -430 8 -11 8 -79 148 -145 302 -23
52 -46 101 -52 108 -7 8 -39 11 -102 10 l-91 -2 93 -3z"/>
<path d="M1453 1453 c3 -10 31 -83 61 -162 31 -79 70 -192 88 -250 32 -107 48
-142 48 -105 0 20 119 374 158 471 18 45 19 52 6 57 -9 3 -95 6 -191 6 -162 0
-175 -1 -170 -17z"/>
</g>
</svg>
